<svg xmlns="http://www.w3.org/2000/svg" width="22" height="22" viewBox="0 0 22 22">
  <g id="download" transform="translate(0 -0.377)">
    <rect id="Rectangle_1466" data-name="Rectangle 1466" width="22" height="22" transform="translate(0 0.377)" fill="#d5d6d7" opacity="0"/>
    <rect id="Rectangle_1467" data-name="Rectangle 1467" width="14" height="2" rx="1" transform="translate(4 16.377)" fill="#d5d6d7"/>
    <rect id="Rectangle_1468" data-name="Rectangle 1468" width="4" height="2" rx="1" transform="translate(4 18.377) rotate(-90)" fill="#d5d6d7"/>
    <rect id="Rectangle_1469" data-name="Rectangle 1469" width="4" height="2" rx="1" transform="translate(16 18.377) rotate(-90)" fill="#d5d6d7"/>
    <path id="Path_1222" data-name="Path 1222" d="M12,15a1,1,0,0,1-.58-.18L7.42,12a1,1,0,1,1,1.16-1.63L12,12.76l3.4-2.56a1,1,0,1,1,1.2,1.6l-4,3a1,1,0,0,1-.6.2Z" transform="translate(-1 -0.854)" fill="#d5d6d7"/>
    <path id="Path_1223" data-name="Path 1223" d="M12,13a1,1,0,0,1-1-1V4a1,1,0,0,1,2,0v8A1,1,0,0,1,12,13Z" transform="translate(-1)" fill="#d5d6d7"/>
  </g>
</svg>
