<svg xmlns="http://www.w3.org/2000/svg" width="19" height="19" viewBox="0 0 19 19">
  <g id="trash-2" transform="translate(0 0)">
    <rect id="Rectangle_1470" data-name="Rectangle 1470" width="19" height="19" transform="translate(0 0)" fill="#d5d6d7" opacity="0"/>
    <path id="Path_1224" data-name="Path 1224" d="M17.323,5.226H13.291V3.879A1.952,1.952,0,0,0,11.274,2H8.855A1.952,1.952,0,0,0,6.839,3.879V5.226H2.806a.806.806,0,0,0,0,1.613h.806V15.71a2.419,2.419,0,0,0,2.419,2.419H14.1a2.419,2.419,0,0,0,2.419-2.419V6.839h.806a.806.806,0,1,0,0-1.613ZM8.452,3.879c0-.129.169-.266.4-.266h2.419c.234,0,.4.137.4.266V5.226H8.452ZM14.9,15.71a.806.806,0,0,1-.806.806H6.032a.806.806,0,0,1-.806-.806V6.839H14.9Z" transform="translate(-0.387 -0.906)" fill="#d5d6d7"/>
    <path id="Path_1225" data-name="Path 1225" d="M8.806,15.839a.806.806,0,0,0,.806-.806V11.806a.806.806,0,0,0-1.613,0v3.226A.806.806,0,0,0,8.806,15.839Z" transform="translate(-1.548 -2.648)" fill="#d5d6d7"/>
    <path id="Path_1226" data-name="Path 1226" d="M14.806,15.839a.806.806,0,0,0,.806-.806V11.806a.806.806,0,1,0-1.613,0v3.226A.806.806,0,0,0,14.806,15.839Z" transform="translate(-2.709 -2.648)" fill="#d5d6d7"/>
  </g>
</svg>
